<svg width="16" height="15" viewBox="0 0 16 15" fill="none" xmlns="http://www.w3.org/2000/svg">
<path d="M13.7693 5.17237L9.91953 4.63184L8.1986 1.26124C8.15159 1.16895 8.07426 1.09424 7.97874 1.04883C7.73917 0.934576 7.44805 1.02979 7.32827 1.26124L5.60734 4.63184L1.7576 5.17237C1.65146 5.18702 1.55442 5.23536 1.48013 5.3086C1.39031 5.39779 1.34081 5.51778 1.34252 5.64221C1.34422 5.76663 1.39699 5.88532 1.48922 5.97218L4.27456 8.59571L3.61651 12.3003C3.60108 12.3865 3.61095 12.4751 3.645 12.5561C3.67906 12.6372 3.73593 12.7074 3.80918 12.7588C3.88242 12.8102 3.96911 12.8407 4.05941 12.8469C4.1497 12.8531 4.24 12.8348 4.32005 12.794L7.76343 11.0449L11.2068 12.794C11.3008 12.8423 11.41 12.8584 11.5146 12.8408C11.7784 12.7969 11.9558 12.5552 11.9104 12.3003L11.2523 8.59571L14.0376 5.97218C14.1135 5.9004 14.1635 5.80665 14.1787 5.70411C14.2196 5.44776 14.0346 5.21046 13.7693 5.17237Z" fill="#505050"/>
</svg>
